<svg xmlns="http://www.w3.org/2000/svg" viewBox="0 0 48 48" role="img" aria-labelledby="title">
  <title id="title">Google</title>
  <rect width="48" height="48" rx="12" fill="#fff"/>
  <path fill="#FFC107" d="M43.6 20H42V20H24v8h11.3A12 12 0 0 1 12 24a12 12 0 0 1 12-12c3.06 0 5.84 1.16 7.96 3.04l5.66-5.66A19.9 19.9 0 0 0 24 4C12.95 4 4 12.95 4 24s8.95 20 20 20c11.05 0 20-8.95 20-20 0-1.34-.14-2.68-.4-4Z"/>
  <path fill="#FF3D00" d="m6.3 14.69 6.57 4.82A11.98 11.98 0 0 1 24 12c3.06 0 5.84 1.16 7.96 3.04l5.66-5.66A19.9 19.9 0 0 0 24 4 19.99 19.99 0 0 0 6.3 14.69Z"/>
  <path fill="#4CAF50" d="M24 44a19.9 19.9 0 0 0 13.42-5.21l-6.17-5.22A11.9 11.9 0 0 1 24 36a11.98 11.98 0 0 1-11.1-7.47l-6.52 5.03A19.98 19.98 0 0 0 24 44Z"/>
  <path fill="#1976D2" d="M43.6 20H42V20H24v8h11.3a12.04 12.04 0 0 1-4.06 5.57l.01-.01 6.17 5.22C37 39.17 44 34 44 24c0-1.34-.14-2.68-.4-4Z"/>
</svg>
